<svg width="76" height="491" viewBox="0 0 76 491" fill="none" xmlns="http://www.w3.org/2000/svg">
<path d="M18.6655 27.5791C19.9106 27.5791 21.2046 27.75 22.5474 28.0918C23.8901 28.4092 25.123 28.9219 26.2461 29.6299C27.3691 30.3135 28.2969 31.2046 29.0293 32.3032C29.7617 33.3774 30.1279 34.6714 30.1279 36.1851C30.1279 37.1128 29.9937 37.9917 29.7251 38.8218C29.4565 39.6519 29.1147 40.4453 28.6997 41.2021C28.3091 41.9346 27.8696 42.6182 27.3813 43.2529C26.9175 43.8877 26.478 44.4858 26.063 45.0474C25.6724 45.5845 25.3428 46.0728 25.0742 46.5122C24.8057 46.9517 24.6714 47.3423 24.6714 47.6841C24.6714 48.1968 24.9644 48.6118 25.5503 48.9292C26.1606 49.2466 26.9419 49.4053 27.894 49.4053C28.7729 49.4053 29.6152 49.2466 30.4209 48.9292C31.2266 48.5874 31.9346 48.0503 32.5449 47.3179C33.1553 46.561 33.6436 45.5845 34.0098 44.3882C34.376 43.1675 34.5591 41.6904 34.5591 39.957V15.9336C34.5591 14.8594 34.4126 14.0293 34.1196 13.4434C33.8267 12.833 33.4604 12.3813 33.021 12.0884C32.606 11.7954 32.1421 11.6001 31.6294 11.5024C31.1167 11.3804 30.6406 11.2583 30.2012 11.1362C29.7861 10.9897 29.4321 10.7944 29.1392 10.5503C28.8462 10.2817 28.6997 9.85449 28.6997 9.26855C28.6997 6.24121 30.2622 4.05615 33.3872 2.71338C36.5366 1.34619 41.1021 0.662598 47.0835 0.662598C49.9644 0.662598 52.5156 0.833496 54.7373 1.17529C56.9834 1.49268 58.8633 2.00537 60.377 2.71338C61.915 3.39697 63.0747 4.28809 63.856 5.38672C64.6616 6.46094 65.0645 7.75488 65.0645 9.26855C65.0645 9.85449 64.918 10.2817 64.625 10.5503C64.332 10.7944 63.9658 10.9897 63.5264 11.1362C63.0869 11.2583 62.6108 11.3804 62.0981 11.5024C61.6099 11.6245 61.146 11.8442 60.7065 12.1616C60.2671 12.4546 59.9009 12.9062 59.6079 13.5166C59.3149 14.1025 59.1685 14.9326 59.1685 16.0068V39.957C59.1685 42.2031 58.8267 44.2661 58.1431 46.146C57.4839 48.0015 56.5684 49.6738 55.3965 51.1631C54.2246 52.6279 52.833 53.9097 51.2217 55.0083C49.6104 56.1069 47.8647 57.0225 45.9849 57.7549C44.105 58.4873 42.1152 59.0244 40.0156 59.3662C37.9404 59.7324 35.8408 59.9155 33.7168 59.9155C31.5439 59.9155 29.3711 59.7202 27.1982 59.3296C25.0498 58.9634 22.9868 58.4141 21.0093 57.6816C19.0562 56.9248 17.2373 55.9971 15.5527 54.8984C13.8682 53.7754 12.4033 52.4814 11.1582 51.0166C9.9375 49.5273 8.97314 47.8672 8.26514 46.0361C7.58154 44.1807 7.23975 42.1543 7.23975 39.957C7.23975 38.3213 7.49609 36.7588 8.00879 35.2695C8.52148 33.7559 9.26611 32.4375 10.2427 31.3145C11.2192 30.167 12.4155 29.2637 13.8315 28.6045C15.2476 27.9209 16.8589 27.5791 18.6655 27.5791Z" fill="white"/>
<path d="M23.7559 107.526H35.2183L29.5786 86.2124L23.7559 107.526ZM14.3076 131C12.501 131 10.9141 130.768 9.54688 130.304C8.17969 129.84 7.03223 129.218 6.10449 128.437C5.20117 127.631 4.51758 126.715 4.05371 125.69C3.58984 124.64 3.35791 123.529 3.35791 122.357C3.35791 121.771 3.49219 121.356 3.76074 121.112C4.0293 120.844 4.3833 120.636 4.82275 120.49C5.26221 120.343 5.75049 120.209 6.2876 120.087C6.84912 119.965 7.41064 119.745 7.97217 119.428C8.53369 119.11 9.0708 118.659 9.5835 118.073C10.0962 117.462 10.5356 116.596 10.9019 115.473L19.9106 88.0068C20.0815 87.4941 20.2036 87.0425 20.2769 86.6519C20.3745 86.2612 20.4233 85.9194 20.4233 85.6265C20.4233 84.8696 20.2158 84.3569 19.8008 84.0884C19.3857 83.8198 18.9219 83.6123 18.4092 83.4658C17.9209 83.3193 17.4692 83.1484 17.0542 82.9531C16.6392 82.7334 16.4316 82.3062 16.4316 81.6714C16.4316 81.5005 16.4438 81.3662 16.4683 81.2686C16.7124 79.584 17.3838 78.1924 18.4824 77.0938C19.5811 75.9707 21.0337 75.0918 22.8403 74.457C24.6714 73.7979 26.8198 73.334 29.2856 73.0654C31.7515 72.7969 34.4736 72.6626 37.4521 72.6626C39.9668 72.6626 42.3716 72.7603 44.6665 72.9556C46.9858 73.1265 49.0732 73.5171 50.9287 74.1274C52.7842 74.7378 54.3345 75.6045 55.5796 76.7275C56.8247 77.8506 57.6426 79.3643 58.0332 81.2686C58.082 81.5127 58.1064 81.6836 58.1064 81.7812C58.1064 82.1963 57.9844 82.5137 57.7402 82.7334C57.5205 82.9287 57.2397 83.0874 56.8979 83.2095C56.5562 83.3315 56.1899 83.4414 55.7993 83.5391C55.4087 83.6123 55.0425 83.7344 54.7007 83.9053C54.3589 84.0762 54.0659 84.3325 53.8218 84.6743C53.6021 84.9917 53.4922 85.4434 53.4922 86.0293C53.4922 86.542 53.6021 87.2012 53.8218 88.0068L61.915 115.473C62.2324 116.571 62.6353 117.426 63.1235 118.036C63.6118 118.646 64.1245 119.11 64.6616 119.428C65.2231 119.745 65.7725 119.965 66.3096 120.087C66.8711 120.209 67.3716 120.343 67.811 120.49C68.2505 120.636 68.6045 120.844 68.873 121.112C69.1416 121.356 69.2759 121.771 69.2759 122.357C69.2759 125.409 67.7012 127.619 64.5518 128.986C61.4023 130.329 56.8491 131 50.8921 131C48.0112 131 45.4478 130.841 43.2017 130.524C40.98 130.182 39.1001 129.669 37.562 128.986C36.0239 128.278 34.8521 127.375 34.0464 126.276C33.2651 125.177 32.8745 123.871 32.8745 122.357C32.8745 121.845 32.9844 121.466 33.2041 121.222C33.4482 120.954 33.7412 120.758 34.083 120.636C34.4248 120.49 34.8032 120.368 35.2183 120.27C35.6333 120.172 36.0117 120.038 36.3535 119.867C36.6953 119.672 36.9761 119.403 37.1958 119.062C37.4399 118.695 37.562 118.183 37.562 117.523C37.562 116.962 37.4766 116.327 37.3057 115.619L36.7197 113.092H21.8516L20.9727 115.619C20.6553 116.547 20.4966 117.304 20.4966 117.89C20.4966 118.451 20.6064 118.891 20.8262 119.208C21.0703 119.501 21.3633 119.733 21.7051 119.904C22.0469 120.05 22.4253 120.172 22.8403 120.27C23.2554 120.368 23.6338 120.49 23.9756 120.636C24.3174 120.758 24.5981 120.954 24.8179 121.222C25.062 121.491 25.1841 121.869 25.1841 122.357C25.1841 123.529 24.9521 124.64 24.4883 125.69C24.0244 126.715 23.3286 127.631 22.4009 128.437C21.4976 129.218 20.3623 129.84 18.9951 130.304C17.6523 130.768 16.0898 131 14.3076 131Z" fill="white"/>
<path d="M39.3198 203.916C36.1216 203.916 33.1797 203.562 30.4941 202.854C27.8086 202.121 25.3672 201.108 23.1699 199.814C20.9971 198.52 19.0806 196.982 17.4204 195.2C15.7603 193.417 14.3687 191.464 13.2456 189.34C12.1226 187.216 11.2681 184.97 10.6821 182.602C10.1206 180.209 9.83984 177.756 9.83984 175.241C9.83984 172.36 10.084 169.589 10.5723 166.928C11.0605 164.243 11.8418 161.728 12.916 159.384C13.9902 157.041 15.3818 154.904 17.0908 152.976C18.7998 151.047 20.875 149.399 23.3164 148.032C25.7578 146.64 28.5776 145.566 31.7759 144.809C34.9985 144.052 38.6606 143.674 42.7622 143.674C45.4722 143.674 48.0479 144.04 50.4893 144.772C52.9307 145.505 55.0669 146.555 56.8979 147.922C58.7534 149.265 60.2183 150.913 61.2925 152.866C62.3911 154.794 62.9404 156.955 62.9404 159.348C62.9404 160.324 62.7817 161.203 62.4644 161.984C62.1714 162.766 61.7441 163.425 61.1826 163.962C60.6455 164.499 59.9985 164.914 59.2417 165.207C58.5093 165.5 57.7158 165.646 56.8613 165.646C56.1045 165.646 55.3477 165.524 54.5908 165.28C53.834 165.036 53.1138 164.633 52.4302 164.072C51.7466 163.486 51.124 162.741 50.5625 161.838C50.0254 160.91 49.5981 159.775 49.2808 158.432C48.8413 156.528 48.0967 155.087 47.0469 154.111C45.9971 153.11 44.874 152.609 43.6777 152.609C42.7744 152.609 41.8711 152.89 40.9678 153.452C40.0889 154.013 39.2954 154.88 38.5874 156.052C37.9038 157.199 37.3423 158.664 36.9028 160.446C36.4634 162.229 36.2437 164.34 36.2437 166.782C36.2437 170.004 36.4268 172.812 36.793 175.205C37.1592 177.573 37.6597 179.599 38.2944 181.284C38.9536 182.968 39.7104 184.348 40.5649 185.422C41.4438 186.496 42.3838 187.338 43.3848 187.949C44.3857 188.559 45.4233 188.986 46.4976 189.23C47.5718 189.45 48.646 189.56 49.7202 189.56C50.8188 189.56 51.8931 189.438 52.9429 189.194C53.9927 188.925 54.9448 188.608 55.7993 188.242C56.6782 187.851 57.4229 187.448 58.0332 187.033C58.668 186.594 59.1318 186.191 59.4248 185.825C59.791 185.336 60.1816 184.982 60.5967 184.763C61.0361 184.519 61.439 184.396 61.8052 184.396C62.4888 184.396 63.0747 184.75 63.563 185.458C64.0513 186.167 64.2954 187.143 64.2954 188.388C64.2954 190.341 63.6851 192.246 62.4644 194.101C61.2681 195.957 59.5713 197.617 57.374 199.082C55.1768 200.522 52.54 201.694 49.4639 202.597C46.4121 203.476 43.0308 203.916 39.3198 203.916Z" fill="white"/>
<path d="M47.5596 232.007C48.2676 231.567 48.7192 231.128 48.9146 230.688C49.1099 230.225 49.2075 229.846 49.2075 229.553C49.2075 229.138 49 228.772 48.585 228.455C48.1943 228.113 47.7427 227.771 47.23 227.429C46.7417 227.063 46.29 226.672 45.875 226.257C45.4844 225.842 45.2891 225.342 45.2891 224.756C45.2891 223.193 45.6675 221.887 46.4243 220.837C47.2056 219.788 48.2188 218.958 49.4639 218.347C50.7334 217.737 52.1616 217.31 53.7485 217.065C55.3599 216.797 56.9956 216.663 58.6558 216.663C60.6089 216.663 62.4521 216.809 64.1855 217.102C65.9434 217.395 67.4814 217.847 68.7998 218.457C70.1182 219.067 71.168 219.861 71.9492 220.837C72.7305 221.814 73.1211 222.974 73.1211 224.316C73.1211 225.171 72.8892 225.854 72.4253 226.367C71.9858 226.88 71.3755 227.319 70.5942 227.686C69.8374 228.027 68.9585 228.333 67.9575 228.601C66.9565 228.845 65.9189 229.138 64.8447 229.48C63.7705 229.822 62.6841 230.261 61.5854 230.798C60.5112 231.311 59.5103 231.995 58.5825 232.849L50.8555 239.99L66.1631 259.473C66.9199 260.449 67.6646 261.206 68.397 261.743C69.1538 262.28 69.8618 262.708 70.521 263.025C71.1802 263.342 71.7905 263.599 72.3521 263.794C72.9136 263.965 73.4019 264.172 73.8169 264.417C74.2319 264.661 74.5493 265.002 74.769 265.442C75.0132 265.857 75.1353 266.467 75.1353 267.273C75.1353 269.983 73.6338 271.948 70.6309 273.169C67.6523 274.39 63.3311 275 57.667 275C54.835 275 52.2959 274.829 50.0498 274.487C47.8037 274.146 45.8872 273.621 44.3003 272.913C42.7378 272.18 41.5415 271.265 40.7114 270.166C39.8813 269.043 39.4663 267.7 39.4663 266.138C39.4663 265.527 39.6738 265.063 40.0889 264.746C40.5283 264.429 41.0044 264.16 41.5171 263.94C42.0298 263.696 42.4937 263.452 42.9087 263.208C43.3481 262.964 43.5679 262.598 43.5679 262.109C43.5679 261.792 43.458 261.45 43.2383 261.084C43.043 260.693 42.7256 260.205 42.2861 259.619L35.9873 251.379C35.7432 251.062 35.4502 250.818 35.1084 250.647C34.7666 250.452 34.4004 250.305 34.0098 250.208C33.6436 250.11 33.2407 250.061 32.8013 250.061C32.3862 250.037 31.9712 250.024 31.5562 250.024H30.8237V259.473C30.8237 260.571 30.9702 261.426 31.2632 262.036C31.5562 262.646 31.9224 263.11 32.3618 263.428C32.8013 263.745 33.2773 263.965 33.79 264.087C34.3027 264.209 34.7788 264.343 35.2183 264.49C35.6577 264.636 36.0239 264.844 36.3169 265.112C36.6099 265.356 36.7563 265.771 36.7563 266.357C36.7563 269.409 35.1816 271.619 32.0322 272.986C28.8828 274.329 24.3296 275 18.3726 275C15.4917 275 12.9282 274.841 10.6821 274.524C8.46045 274.182 6.58057 273.669 5.04248 272.986C3.52881 272.278 2.36914 271.375 1.56348 270.276C0.782227 269.177 0.391602 267.871 0.391602 266.357C0.391602 265.771 0.538086 265.356 0.831055 265.112C1.12402 264.844 1.47803 264.648 1.89307 264.526C2.33252 264.38 2.79639 264.246 3.28467 264.124C3.79736 264.001 4.26123 263.794 4.67627 263.501C5.11572 263.184 5.48193 262.732 5.7749 262.146C6.06787 261.56 6.21436 260.718 6.21436 259.619V232.007C6.21436 230.933 6.06787 230.103 5.7749 229.517C5.48193 228.906 5.11572 228.455 4.67627 228.162C4.26123 227.844 3.79736 227.625 3.28467 227.502C2.79639 227.38 2.33252 227.258 1.89307 227.136C1.47803 226.99 1.12402 226.794 0.831055 226.55C0.538086 226.282 0.391602 225.854 0.391602 225.269C0.391602 223.755 0.782227 222.461 1.56348 221.387C2.36914 220.288 3.52881 219.397 5.04248 218.713C6.58057 218.005 8.46045 217.493 10.6821 217.175C12.9282 216.833 15.4917 216.663 18.3726 216.663C21.3511 216.663 23.9878 216.833 26.2827 217.175C28.5776 217.493 30.4941 218.005 32.0322 218.713C33.5947 219.397 34.7666 220.288 35.5479 221.387C36.3535 222.461 36.7563 223.755 36.7563 225.269C36.7563 225.854 36.6099 226.282 36.3169 226.55C36.0239 226.794 35.6577 226.99 35.2183 227.136C34.7788 227.258 34.3027 227.38 33.79 227.502C33.2773 227.625 32.8013 227.844 32.3618 228.162C31.9224 228.455 31.5562 228.906 31.2632 229.517C30.9702 230.103 30.8237 230.933 30.8237 232.007V243.433C31.5073 243.433 32.2275 243.396 32.9844 243.323C33.7412 243.25 34.4248 242.981 35.0352 242.517L47.5596 232.007Z" fill="white"/>
<path d="M39.686 319.388C40.8091 319.388 41.7124 319.119 42.396 318.582C43.0796 318.045 43.5923 317.361 43.9341 316.531C44.2759 315.701 44.4956 314.773 44.5933 313.748C44.7153 312.723 44.7764 311.734 44.7764 310.782C44.7764 310.147 44.7642 309.561 44.7397 309.024C44.7153 308.487 44.7031 307.999 44.7031 307.559C44.7031 306.167 44.6421 304.776 44.52 303.384C44.4224 301.968 44.1538 300.699 43.7144 299.576C43.2993 298.453 42.6646 297.537 41.8101 296.829C40.9556 296.121 39.7959 295.767 38.3311 295.767C37.4033 295.767 36.6709 295.926 36.1338 296.243C35.6211 296.536 35.2305 296.951 34.9619 297.488C34.7178 298.025 34.5591 298.648 34.4858 299.356C34.437 300.04 34.4126 300.784 34.4126 301.59V319.021C34.4858 319.095 34.7178 319.156 35.1084 319.205C35.4502 319.253 35.9629 319.302 36.6465 319.351C37.3545 319.375 38.3677 319.388 39.686 319.388ZM43.1284 288.663C47.7183 288.663 51.71 289.2 55.1035 290.274C58.5215 291.324 61.3535 292.715 63.5996 294.449C65.8701 296.158 67.5547 298.123 68.6533 300.345C69.7764 302.542 70.3379 304.788 70.3379 307.083C70.3379 309.451 69.752 311.783 68.5801 314.078C67.4326 316.348 65.7114 318.375 63.4165 320.157C61.146 321.939 58.314 323.379 54.9204 324.478C51.5269 325.552 47.5962 326.089 43.1284 326.089C42.7378 326.089 42.1274 326.089 41.2974 326.089C40.4673 326.065 39.5884 326.053 38.6606 326.053C37.7573 326.028 36.8906 326.016 36.0605 326.016C35.2305 325.992 34.6323 325.967 34.2661 325.943V331.473C34.2661 332.571 34.4126 333.426 34.7056 334.036C34.9985 334.646 35.3647 335.11 35.8042 335.428C36.2437 335.745 36.7197 335.965 37.2324 336.087C37.7451 336.209 38.2212 336.343 38.6606 336.49C39.1001 336.636 39.4663 336.844 39.7593 337.112C40.0522 337.356 40.1987 337.771 40.1987 338.357C40.1987 341.409 38.624 343.619 35.4746 344.986C32.3252 346.329 27.772 347 21.8149 347C18.9341 347 16.3706 346.841 14.1245 346.524C11.9028 346.182 10.0229 345.669 8.48486 344.986C6.97119 344.278 5.81152 343.375 5.00586 342.276C4.22461 341.177 3.83398 339.871 3.83398 338.357C3.83398 337.771 3.98047 337.356 4.27344 337.112C4.56641 336.844 4.92041 336.648 5.33545 336.526C5.7749 336.38 6.23877 336.246 6.72705 336.124C7.23975 336.001 7.70361 335.794 8.11865 335.501C8.55811 335.184 8.92432 334.732 9.21729 334.146C9.51025 333.56 9.65674 332.718 9.65674 331.619V304.007C9.65674 302.933 9.51025 302.103 9.21729 301.517C8.92432 300.906 8.55811 300.455 8.11865 300.162C7.70361 299.844 7.23975 299.625 6.72705 299.502C6.23877 299.38 5.7749 299.258 5.33545 299.136C4.92041 298.99 4.56641 298.794 4.27344 298.55C3.98047 298.282 3.83398 297.854 3.83398 297.269C3.83398 295.779 4.2124 294.498 4.96924 293.423C5.75049 292.325 6.88574 291.421 8.375 290.713C9.86426 290.005 11.6953 289.493 13.8682 289.175C16.041 288.833 18.5312 288.663 21.3389 288.663H43.1284Z" fill="white"/>
<path d="M34.9253 419.916C31.2388 419.916 27.9062 419.562 24.9277 418.854C21.9492 418.121 19.3125 417.108 17.0176 415.814C14.7227 414.52 12.7451 412.982 11.085 411.2C9.4248 409.417 8.05762 407.464 6.9834 405.34C5.90918 403.216 5.11572 400.97 4.60303 398.602C4.11475 396.209 3.87061 393.756 3.87061 391.241C3.87061 388.36 4.0293 385.589 4.34668 382.928C4.68848 380.243 5.29883 377.728 6.17773 375.384C7.08105 373.041 8.32617 370.904 9.91309 368.976C11.5 367.047 13.5508 365.399 16.0654 364.032C18.6045 362.64 21.6685 361.566 25.2573 360.809C28.8462 360.052 33.0942 359.674 38.0015 359.674C41.9565 359.674 45.4722 360.04 48.5483 360.772C51.6245 361.48 54.3101 362.481 56.605 363.775C58.9243 365.069 60.8652 366.607 62.4277 368.39C64.0146 370.147 65.2964 372.076 66.2729 374.176C67.2739 376.251 67.9819 378.46 68.397 380.804C68.8364 383.148 69.0562 385.528 69.0562 387.945C69.0562 390.68 68.8853 393.377 68.5435 396.039C68.2261 398.675 67.6157 401.178 66.7124 403.546C65.8335 405.914 64.5884 408.099 62.9771 410.101C61.3901 412.103 59.3271 413.836 56.7881 415.301C54.2734 416.742 51.2217 417.877 47.6328 418.707C44.0439 419.513 39.8081 419.916 34.9253 419.916ZM37.0127 410.284C38.1113 410.284 39.0024 409.979 39.686 409.369C40.394 408.758 40.9434 407.879 41.334 406.732C41.749 405.584 42.0298 404.181 42.1763 402.521C42.3472 400.86 42.4326 398.98 42.4326 396.881V395.233C42.4326 393.377 42.4204 391.461 42.396 389.483C42.3716 387.481 42.2983 385.528 42.1763 383.624C42.0542 381.695 41.8467 379.876 41.5537 378.167C41.2852 376.458 40.8945 374.957 40.3818 373.663C39.8936 372.345 39.2588 371.307 38.4775 370.55C37.7207 369.793 36.7808 369.415 35.6577 369.415C34.5103 369.415 33.5825 369.684 32.8745 370.221C32.1665 370.733 31.6172 371.502 31.2266 372.528C30.8604 373.529 30.604 374.774 30.4575 376.263C30.3354 377.752 30.2744 379.474 30.2744 381.427C30.2744 383.209 30.2866 385.162 30.311 387.286C30.3354 389.41 30.4087 391.546 30.5308 393.695C30.6528 395.819 30.8481 397.882 31.1167 399.884C31.3853 401.886 31.7637 403.656 32.252 405.194C32.7646 406.732 33.3994 407.965 34.1562 408.893C34.9375 409.82 35.8896 410.284 37.0127 410.284Z" fill="white"/>
<path d="M48.8047 475.473C48.8047 476.571 48.9512 477.426 49.2441 478.036C49.5371 478.646 49.9033 479.11 50.3428 479.428C50.7822 479.745 51.2583 479.965 51.771 480.087C52.2837 480.209 52.7598 480.343 53.1992 480.49C53.6387 480.636 54.0049 480.844 54.2979 481.112C54.5908 481.356 54.7373 481.771 54.7373 482.357C54.7373 485.409 53.1626 487.619 50.0132 488.986C46.8638 490.329 42.3105 491 36.3535 491C33.4727 491 30.9092 490.841 28.6631 490.524C26.4414 490.182 24.5615 489.669 23.0234 488.986C21.5098 488.278 20.3501 487.375 19.5444 486.276C18.7632 485.177 18.3726 483.871 18.3726 482.357C18.3726 481.771 18.519 481.356 18.812 481.112C19.105 480.844 19.459 480.648 19.874 480.526C20.3135 480.38 20.7773 480.246 21.2656 480.124C21.7783 480.001 22.2422 479.794 22.6572 479.501C23.0967 479.184 23.4629 478.732 23.7559 478.146C24.0488 477.56 24.1953 476.718 24.1953 475.619V440.536L20.0938 440.683L18.6655 446.542C18.2749 447.86 17.7988 448.971 17.2373 449.875C16.6758 450.778 16.0654 451.522 15.4062 452.108C14.7471 452.67 14.0513 453.085 13.3188 453.354C12.5864 453.598 11.8418 453.72 11.085 453.72C10.2305 453.72 9.4248 453.573 8.66797 453.28C7.93555 452.987 7.28857 452.572 6.72705 452.035C6.18994 451.498 5.7627 450.839 5.44531 450.058C5.15234 449.276 5.00586 448.397 5.00586 447.421C5.00586 445.956 5.21338 444.369 5.62842 442.66C6.06787 440.927 6.71484 439.328 7.56934 437.863C8.44824 436.374 9.54688 435.141 10.8652 434.164C12.1836 433.163 13.7339 432.663 15.5161 432.663H57.5205C59.3027 432.663 60.8408 433.151 62.1348 434.127C63.4531 435.104 64.5396 436.337 65.394 437.826C66.2729 439.291 66.9199 440.878 67.335 442.587C67.7744 444.296 67.9941 445.883 67.9941 447.348C67.9941 448.324 67.8354 449.203 67.5181 449.984C67.2251 450.766 66.8101 451.425 66.2729 451.962C65.7358 452.499 65.0889 452.914 64.332 453.207C63.5996 453.5 62.8062 453.646 61.9517 453.646C61.1948 453.646 60.438 453.524 59.6812 453.28C58.9243 453.036 58.2041 452.633 57.5205 452.072C56.8369 451.486 56.2144 450.741 55.6528 449.838C55.1157 448.91 54.6885 447.775 54.3711 446.432L52.9429 440.609L48.8047 440.463V475.473Z" fill="white"/>
</svg>
