<svg width="421" height="61" viewBox="0 0 421 61" fill="none" xmlns="http://www.w3.org/2000/svg">
<path d="M105.623 50.6909C96.8448 50.6909 87.5675 44.927 83.0196 40.7464C78.0407 36.1671 64.3742 21.2788 64.3061 21.2105C55.3464 11.152 43.2904 0 31.2571 0C16.774 0 4.13962 10.0698 0.861938 23.4204C1.11145 22.5432 5.71609 10.3204 23.0005 10.3204C31.7788 10.3204 41.0561 16.0844 45.6041 20.265C50.583 24.8443 64.2494 39.7326 64.3175 39.8009C73.2773 49.848 85.3332 61 97.3665 61C111.85 61 124.484 50.9302 127.773 37.5796C127.524 38.4568 122.919 50.6796 105.634 50.6796L105.623 50.6909Z" fill="#00A3DF"/>
<path d="M64.3062 39.8009C64.3062 39.8009 60.3366 35.4723 55.9248 30.8019C53.5431 33.6497 50.0953 37.5227 46.1485 40.997C38.7878 47.4786 34.0017 48.8456 31.2571 48.8456C20.925 48.8456 12.4983 40.6211 12.4983 30.5057C12.4983 20.3903 20.9137 12.2228 31.2571 12.1658C31.6314 12.1658 32.085 12.2 32.6408 12.3025C29.5332 11.1064 26.2328 10.3204 23.0005 10.3204C5.7161 10.3204 1.11146 22.5318 0.861952 23.4204C0.30622 25.6986 0 28.068 0 30.4943C0 47.3078 13.8139 61 31.0416 61C38.2208 61 46.2619 57.2979 54.5525 50.0075C58.4653 46.5559 61.8677 42.8766 64.4196 39.9035C64.3855 39.8693 64.3515 39.8351 64.3175 39.7895L64.3062 39.8009Z" fill="url(#paint0_linear_23_42)"/>
<path d="M64.3062 21.1991C64.3062 21.1991 68.2757 25.5277 72.6875 30.1981C75.0692 27.3503 78.517 23.4773 82.4639 20.003C89.8245 13.5214 94.6106 12.1544 97.3552 12.1544C107.687 12.1544 116.114 20.3789 116.114 30.4943C116.114 40.5528 107.699 48.7772 97.3552 48.8342C96.981 48.8342 96.5273 48.8 95.9716 48.6975C99.0791 49.8936 102.38 50.6796 105.612 50.6796C122.896 50.6796 127.501 38.4568 127.75 37.5796C128.306 35.3014 128.612 32.932 128.612 30.5057C128.612 13.6923 114.572 0 97.3552 0C90.1761 0 82.3505 3.70215 74.0712 10.9925C70.1584 14.4441 66.7559 18.1234 64.2041 21.0965C64.2381 21.1307 64.2722 21.1649 64.3062 21.2105V21.1991Z" fill="url(#paint1_linear_23_42)"/>
<path d="M149 59.2571V42.2158H153.332V59.2571H149Z" fill="black"/>
<path d="M168.7 48.6861C167.963 46.8179 166.364 45.713 164.594 45.713C161.884 45.713 160.058 48.0368 160.058 50.6909C160.058 53.3451 161.941 55.76 164.617 55.76C166.341 55.76 167.804 54.7918 168.7 52.878H173.237C172.182 56.9789 168.677 59.5761 164.663 59.5761C162.304 59.5761 160.081 58.7445 158.334 57.0244C156.497 55.2246 155.714 53.0603 155.714 50.4859C155.714 45.9749 159.593 41.8969 164.447 41.8969C166.783 41.8969 168.666 42.5462 170.367 43.9929C171.978 45.3712 172.93 46.9432 173.237 48.6861H168.7Z" fill="black"/>
<path d="M175.482 59.2571V42.2158H181.221C183.036 42.1931 184.385 42.4437 185.281 42.8651C187.119 43.7195 188.264 45.6788 188.264 47.9798C188.264 51.1352 186.518 53.926 181.663 53.926H179.645V59.2685H175.494L175.482 59.2571ZM181.493 50.0986C183.24 50.0986 184.113 49.4948 184.113 48.0482C184.113 46.6015 183.263 46.0433 181.335 46.0433H179.633V50.0986H181.493Z" fill="black"/>
<path d="M207.046 59.2571V52.4338H201.5V59.2571H197.167V42.2158H201.5V48.6177H207.046V42.2158H211.378V59.2571H207.046Z" fill="black"/>
<path d="M223.094 42.2158H227.426V52.6502C227.426 54.4272 227.154 55.76 226.576 56.6827C225.453 58.5053 223.547 59.5875 220.984 59.5875C219.567 59.5875 218.342 59.3141 217.355 58.7331C215.359 57.5598 214.395 55.9651 214.395 52.673V42.2158H218.727V52.6046C218.727 54.7234 219.396 55.76 220.928 55.76C222.459 55.76 223.082 55.0196 223.082 52.6274V42.2158H223.094Z" fill="black"/>
<path d="M230.454 59.2571V42.2158H235.887C237.101 42.2158 237.997 42.2842 238.598 42.4209C240.526 42.8538 242.125 44.3574 242.125 46.6584C242.125 48.1051 241.433 49.4037 240.151 50.11C242.011 50.7593 242.953 52.1148 242.953 54.0741C242.953 55.7144 242.261 57.2067 240.979 58.1066C239.652 59.0521 238.779 59.2571 236.091 59.2571H230.454ZM236.318 48.6861C237.395 48.6861 237.974 48.2304 237.974 47.3305C237.974 46.4306 237.418 46.0433 236.352 46.0433H234.605V48.6974H236.329L236.318 48.6861ZM236.828 55.4411C238.042 55.4411 238.802 54.9057 238.802 53.8007C238.802 52.8097 238.133 52.3312 236.851 52.3312H234.605V55.4411H236.828Z" fill="black"/>
<path d="M251.935 47.1938C251.754 45.9749 251.243 45.5307 250.404 45.5307C249.599 45.5307 248.918 46.1116 248.918 46.8635C248.918 47.8773 249.837 48.3329 251.697 49.1417C255.44 50.7593 256.37 52.1148 256.37 54.3475C256.37 57.6396 254.124 59.5761 250.449 59.5761C246.775 59.5761 244.325 57.6396 244.325 53.983V53.6185H248.635C248.658 55.0196 249.349 55.9423 250.427 55.9423C251.323 55.9423 252.06 55.2246 252.06 54.3019C252.06 52.9464 250.177 52.3426 248.646 51.7275C245.868 50.5998 244.609 49.1189 244.609 46.909C244.609 44.0043 247.41 41.8855 250.529 41.8855C251.652 41.8855 252.638 42.1361 253.534 42.6031C255.349 43.5486 256.222 44.9042 256.245 47.1824H251.958L251.935 47.1938Z" fill="black"/>
<path d="M276.059 59.2571L269.549 48.8455L269.662 59.2571H265.511V42.2158H269.254L275.854 52.9919L275.673 42.2158H279.824V59.2571H276.059Z" fill="black"/>
<path d="M282.92 59.2571V42.2158H292.345V46.0433H287.071V48.6974H292.186V52.5249H287.071V55.4524H292.345V59.2799H282.92V59.2571Z" fill="black"/>
<path d="M297.063 59.2571V46.0319H293.717V42.2045H304.73V46.0319H301.407V59.2571H297.074H297.063Z" fill="black"/>
<path d="M318.737 59.2571L316.196 48.219H316.151L313.61 59.2571H309.686L305.308 42.2158H309.709L311.977 53.2995H312.022L314.518 42.2158H317.841L320.29 53.3451H320.336L322.649 42.2158H327.027L322.536 59.2571H318.725H318.737Z" fill="black"/>
<path d="M327.764 51.1352C327.764 45.861 331.552 41.8969 336.713 41.8969C341.873 41.8969 345.684 45.7471 345.684 50.6226C345.684 55.498 341.782 59.5875 336.928 59.5875C332.074 59.5875 327.776 56.1815 327.776 51.1352H327.764ZM341.34 50.7593C341.34 48.0823 339.435 45.713 336.713 45.713C333.991 45.713 332.108 47.9912 332.108 50.6909C332.108 53.3906 334.013 55.76 336.781 55.76C339.548 55.76 341.34 53.4818 341.34 50.7593Z" fill="black"/>
<path d="M356.141 59.2571L352.217 53.7551H352.171V59.2571H348.02V42.2158H353.566C355.335 42.2158 356.685 42.4437 357.581 42.8424C359.418 43.6739 360.7 45.6788 360.7 48.0937C360.7 50.7934 359.089 53.0033 356.481 53.459L361.086 59.2685H356.129L356.141 59.2571ZM353.77 50.782C355.494 50.782 356.549 49.9733 356.549 48.3443C356.549 46.8749 355.449 46.0433 353.816 46.0433H352.16V50.7934H353.77V50.782Z" fill="black"/>
<path d="M372.461 59.2571L367.822 51.887H367.777V59.2571H363.445V42.2158H367.777V49.8821H367.822L372.62 42.2158H377.156L371.542 50.7137L377.531 59.2571H372.461Z" fill="black"/>
<path d="M149 32.4144V1.58545H153.393V32.4144H149Z" fill="#188BFF"/>
<path d="M162.455 32.4144V5.70649H156.688V1.58545H172.615V5.70649H166.848V32.4144H162.455Z" fill="#188BFF"/>
<path d="M194.56 32.4144L191.232 23.3279H180.424L177.096 32.4144H172.461L183.873 1.58545H187.816L199.239 32.4144H194.56ZM185.905 7.41796H185.828L181.962 19.2068H189.727L185.905 7.41796Z" fill="#188BFF"/>
<path d="M202.93 32.4144V1.58545H207.323V28.2934H217.769V32.4144H202.93Z" fill="#188BFF"/>
<path d="M223.975 32.4144V21.2899L214.628 1.58545H219.549L226.172 16.0429L232.762 1.58545H237.639L228.369 21.2899V32.4144H223.975Z" fill="#188BFF"/>
<path d="M269.491 27.5841C267.096 31.2885 264.208 33 260.748 33C255.673 33 251.565 29.0028 251.565 23.7896C251.565 19.9951 253.597 16.7072 257.332 14.9958C255.091 12.6988 254.443 10.9986 254.443 8.87051C254.443 4.58058 257.574 1 262.044 1C266.273 1 269.524 4.50176 269.524 8.83673C269.524 12.1246 267.777 14.6242 264.482 16.2569L268.469 20.254L271.764 13.4645H276.52L271.6 23.6319L277.652 29.9599L274.73 33L269.491 27.5841ZM260.232 18.0359C257.672 18.9141 255.959 20.8733 255.959 23.7445C255.959 26.6158 257.947 28.8677 260.759 28.8677C263.076 28.8677 264.987 27.5728 266.569 24.4539L260.232 18.0359ZM265.152 8.70162C265.152 6.74244 263.812 5.12104 262.022 5.12104C260.232 5.12104 258.848 6.70866 258.848 8.87051C258.848 10.323 259.66 11.6179 261.407 13.2505C264.296 11.753 265.141 10.5369 265.141 8.71288L265.152 8.70162Z" fill="url(#paint2_linear_23_42)"/>
<path d="M295.017 32.4144V5.70649H289.251V1.58545H305.188V5.70649H299.422V32.4144H295.028H295.017Z" fill="#E8423F"/>
<path d="M308.549 32.4144V1.58545H312.942V32.4144H308.549Z" fill="#E8423F"/>
<path d="M346.585 24.7917C343.532 30.1626 338.699 33 332.691 33C324.354 33 317.489 25.3322 317.489 17.1239C317.489 7.83462 324.64 1 332.735 1C338.424 1 343.751 3.66854 346.794 9.45602H341.511C339.237 6.74244 336.59 5.12104 333.053 5.12104C326.749 5.12104 321.872 10.582 321.872 16.7072C321.872 23.1703 326.628 28.879 332.801 28.879C335.931 28.879 338.732 27.6291 341.17 24.7917H346.574H346.585Z" fill="#E8423F"/>
<path d="M350.771 32.4144V1.58545H355.164V32.4144H350.771Z" fill="#E8423F"/>
<path d="M380.569 32.4144L365.697 8.57771H365.62V32.4144H361.227V1.58545H366.026L380.657 25.0394H380.734V1.58545H385.127V32.4144H380.58H380.569Z" fill="#E8423F"/>
<path d="M405.106 33C396.77 33 389.707 25.6699 389.707 17.3378C389.707 7.87963 396.781 1.01123 405.227 1.01123C414.168 1.01123 421 8.21742 421 16.7973C421 26.1316 413.97 33 405.106 33ZM416.606 17.0788C416.606 10.7058 411.894 5.12101 405.546 5.12101C397.418 5.12101 394.09 12.2822 394.09 16.8649C394.09 23.0689 398.483 28.8677 405.348 28.8677C412.213 28.8677 416.606 22.6974 416.606 17.0788Z" fill="#E8423F"/>
<defs>
<linearGradient id="paint0_linear_23_42" x1="47.4641" y1="57.0131" x2="4.96875" y2="13.2061" gradientUnits="userSpaceOnUse">
<stop offset="0.22" stop-color="#FF0079"/>
<stop offset="0.89" stop-color="#612084"/>
</linearGradient>
<linearGradient id="paint1_linear_23_42" x1="81.1256" y1="4.0211" x2="123.61" y2="47.8282" gradientUnits="userSpaceOnUse">
<stop offset="0.21" stop-color="#FF3100"/>
<stop offset="0.68" stop-color="#FF9900"/>
</linearGradient>
<linearGradient id="paint2_linear_23_42" x1="252" y1="33" x2="278" y2="33" gradientUnits="userSpaceOnUse">
<stop stop-color="#188BFF" stop-opacity="0.8"/>
<stop offset="1" stop-color="#E8423F" stop-opacity="0.8"/>
</linearGradient>
</defs>
</svg>
