<svg xmlns="http://www.w3.org/2000/svg" viewBox="0 0 1535.12 272">
  <defs>
    <linearGradient id="a" x1="212.58" x2="23.13" y1="254.21" y2="58.03" gradientUnits="userSpaceOnUse">
      <stop offset=".22" stop-color="#ff0079"/>
      <stop offset=".89" stop-color="#592489"/>
    </linearGradient>
    <linearGradient id="b" x1="13100.75" x2="12911.3" y1="12432.5" y2="12236.32" gradientTransform="rotate(-180 6732.025 6225.205)" gradientUnits="userSpaceOnUse">
      <stop offset=".21" stop-color="#ff4b00"/>
      <stop offset=".68" stop-color="#ffab00"/>
    </linearGradient>
  </defs>
  <path fill="#fff" d="M636.88 123.49v-113h30.44v113h-30.44Zm124.32 0-39.21-67.1v67.1h-29.48v-113h34.43l35.22 61.36V10.49h29.64v113h-30.6ZM870.21 38.7v84.79h-29.96V38.7h-32.51V10.49h95.15V38.7h-32.67Zm48.61 84.79v-113h72.36v25.82h-42.71v17.85h38.89v24.86h-38.89v18.17h43.03v26.3h-72.68Zm93.87 0v-113h47.65c22.95 0 37.93 15.3 37.93 36.34 0 15.3-8.45 26.62-20.88 31.56l21.36 45.1h-32.35l-17.85-40.96h-6.22v40.96h-29.64Zm42.08-63.91c8.93 0 13.55-5.1 13.55-12.27s-4.62-12.11-13.55-12.11h-12.43v24.38h12.43Zm131.65 63.91-39.21-67.1v67.1h-29.49v-113h34.43l35.22 61.36V10.49h29.64v113h-30.6Zm55.78 0v-113h72.36v25.82h-42.71v17.85h38.89v24.86h-38.89v18.17h43.03v26.3h-72.68Zm152.09-84.79v84.79h-29.96V38.7h-32.51V10.49h95.15V38.7h-32.67Zm-735.7 171.81c0 18.81 13.39 29.64 27.09 29.64 15.62 0 22.31-9.72 24.7-17.69l28.05 8.13c-4.46 16.73-19.44 38.73-52.91 38.73-31.4 0-57.85-22.79-57.85-58.65s26.94-59.13 57.54-59.13c32.51 0 47.34 19.76 51.96 36.66l-27.57 9.4c-2.07-7.49-8.13-17.37-24.07-17.37-12.75 0-26.93 9.72-26.93 30.28Zm147.42-58.97c31.08 0 58.01 22.31 58.01 58.97s-26.94 58.97-58.01 58.97S748 247.17 748 210.51s26.94-58.97 58.01-58.97Zm0 89.09c13.23 0 27.25-9.4 27.25-30.28s-14.03-29.96-27.25-29.96-27.25 9.4-27.25 29.96 14.03 30.28 27.25 30.28Zm176.19 26.3v-69.97l-24.7 69.97h-23.59l-24.54-69.17v69.17H881v-113h39.69l25.34 68.85 24.23-68.85h40.8v113h-28.85Zm83.67-38.56v38.57h-29.64v-113h45.1c23.59 0 39.69 15.46 39.69 37.29s-16.1 37.14-39.69 37.14h-15.46Zm11.63-24.7c7.81 0 13.55-4.62 13.55-12.27s-5.74-12.43-13.55-12.43h-11.48v24.7h11.48Zm58.97 21.83v-71.56h29.8v70.61c0 11.16 5.74 17.05 15.62 17.05s15.46-5.9 15.46-17.05v-70.61h29.8v71.56c0 28.37-18.97 43.99-45.26 43.99s-45.42-15.62-45.42-43.99Zm169.1-43.35v84.79h-29.96v-84.79h-32.51v-28.21h95.15v28.21h-32.67Zm48.61 84.78v-113h72.36v25.82h-42.71v17.85h38.89v24.86h-38.89v18.17h43.03v26.3h-72.68Zm94.87 0v-113h47.65c22.95 0 37.93 15.3 37.93 36.34 0 15.3-8.45 26.62-20.88 31.56l21.36 45.1h-32.35l-17.85-40.96h-6.22v40.96h-29.64Zm42.08-63.91c8.93 0 13.55-5.1 13.55-12.27s-4.62-12.11-13.55-12.11h-12.43v24.38h12.43Z"/>
  <path fill="#00ace5" d="M473 226c-39.32 0-80.84-25.7-101.22-44.36-22.28-20.41-83.51-86.81-83.78-87.11C247.85 49.72 193.86 0 140 0 75.13 0 18.56 44.92 3.84 104.44 4.97 100.52 25.58 46 103 46c39.32 0 80.84 25.7 101.22 44.36 22.28 20.41 83.51 86.81 83.78 87.11 40.15 44.8 94.14 94.52 148 94.52 64.87 0 121.44-44.92 136.16-104.44-1.13 3.92-21.74 58.44-99.16 58.44Z"/>
  <path fill="url(#a)" d="M288 177.48c-.14-.16-17.77-19.28-37.54-40.14-10.68 12.68-26.08 29.96-43.78 45.47-32.98 28.91-54.42 34.97-66.68 34.97-46.26 0-83.99-36.69-83.99-81.78S93.7 54.5 140 54.22c1.68 0 3.71.17 6.18.61C132.27 49.49 117.49 46 103 46c-77.39 0-98.02 54.49-99.15 58.43a131.196 131.196 0 0 0-3.84 31.56c0 74.99 61.86 136 139 136 32.16 0 68.18-16.49 105.28-49 17.54-15.37 32.75-31.81 44.17-45.03-.15-.16-.3-.33-.44-.49Z"/>
  <path fill="url(#b)" d="M288 94.52c.14.16 17.77 19.28 37.54 40.14 10.68-12.68 26.08-29.96 43.78-45.47C402.3 60.28 423.74 54.22 436 54.22c46.26 0 83.99 36.69 83.99 81.78 0 44.84-37.69 81.5-83.99 81.78-1.68 0-3.71-.17-6.18-.61 13.91 5.34 28.69 8.83 43.18 8.83 77.39 0 98.02-54.49 99.15-58.43 2.51-10.14 3.84-20.71 3.84-31.56C576 61.01 513.14 0 436 0c-32.16 0-67.18 16.49-104.28 49-17.54 15.37-32.75 31.81-44.17 45.03.15.16.3.33.44.49Z"/>
</svg>
